<svg width="210" height="56" viewBox="0 0 210 56" fill="none" xmlns="http://www.w3.org/2000/svg">
<path d="M16.7713 35H13.4759L18.4972 20.4545H22.4602L27.4744 35H24.179L20.5355 23.7784H20.4219L16.7713 35ZM16.5653 29.2827H24.3494V31.6832H16.5653V29.2827ZM32.1939 28.6932V35H29.1683V24.0909H32.0518V26.0156H32.1797C32.4212 25.3812 32.826 24.8793 33.3942 24.5099C33.9624 24.1359 34.6513 23.9489 35.4609 23.9489C36.2185 23.9489 36.879 24.1146 37.4425 24.446C38.0059 24.7775 38.4439 25.2509 38.7564 25.8665C39.0689 26.4773 39.2251 27.2064 39.2251 28.054V35H36.1996V28.5938C36.2043 27.9261 36.0339 27.4053 35.6882 27.0312C35.3426 26.6525 34.8667 26.4631 34.2607 26.4631C33.8535 26.4631 33.4936 26.5507 33.1811 26.7259C32.8733 26.901 32.6319 27.1567 32.4567 27.4929C32.2862 27.8243 32.1986 28.2244 32.1939 28.6932ZM44.7205 35.206C44.0245 35.206 43.4042 35.0852 42.8597 34.8438C42.3152 34.5975 41.8844 34.2353 41.5671 33.7571C41.2546 33.2741 41.0984 32.6728 41.0984 31.9531C41.0984 31.3471 41.2096 30.8381 41.4322 30.4261C41.6547 30.0142 41.9577 29.6828 42.3413 29.4318C42.7248 29.1809 43.1604 28.9915 43.6481 28.8636C44.1405 28.7358 44.6566 28.6458 45.1964 28.5938C45.8308 28.5275 46.3422 28.4659 46.7305 28.4091C47.1187 28.3475 47.4005 28.2576 47.5756 28.1392C47.7508 28.0208 47.8384 27.8456 47.8384 27.6136V27.571C47.8384 27.1212 47.6964 26.7732 47.4123 26.527C47.1329 26.2808 46.7352 26.1577 46.2191 26.1577C45.6746 26.1577 45.2414 26.2784 44.9194 26.5199C44.5974 26.7566 44.3844 27.0549 44.2802 27.4148L41.4819 27.1875C41.6239 26.5246 41.9033 25.9517 42.32 25.4688C42.7366 24.9811 43.274 24.607 43.9322 24.3466C44.5951 24.0814 45.3621 23.9489 46.2333 23.9489C46.8394 23.9489 47.4194 24.0199 47.9734 24.1619C48.5321 24.304 49.0269 24.5241 49.4577 24.8224C49.8933 25.1207 50.2366 25.5043 50.4876 25.973C50.7385 26.437 50.864 26.9934 50.864 27.642V35H47.9947V33.4872H47.9094C47.7343 33.8281 47.4999 34.1288 47.2063 34.3892C46.9128 34.6449 46.56 34.8461 46.1481 34.9929C45.7362 35.1349 45.2603 35.206 44.7205 35.206ZM45.587 33.1179C46.0321 33.1179 46.4251 33.0303 46.766 32.8551C47.1069 32.6752 47.3744 32.4337 47.5685 32.1307C47.7627 31.8277 47.8597 31.4844 47.8597 31.1009V29.9432C47.765 30.0047 47.6348 30.0616 47.4691 30.1136C47.3081 30.161 47.1258 30.206 46.9222 30.2486C46.7186 30.2865 46.515 30.322 46.3114 30.3551C46.1078 30.3835 45.9232 30.4096 45.7575 30.4332C45.4023 30.4853 45.0922 30.5682 44.8271 30.6818C44.5619 30.7955 44.3559 30.9493 44.2092 31.1435C44.0624 31.3329 43.989 31.5696 43.989 31.8537C43.989 32.2656 44.1381 32.5805 44.4364 32.7983C44.7395 33.0114 45.123 33.1179 45.587 33.1179ZM55.9528 31.8608L55.9599 28.2315H56.4002L59.8945 24.0909H63.3675L58.6729 29.5739H57.9556L55.9528 31.8608ZM53.2113 35V20.4545H56.2369V35H53.2113ZM60.0295 35L56.8192 30.2486L58.8363 28.1108L63.5735 35H60.0295ZM69.5376 35V20.4545H75.2763C76.3748 20.4545 77.3123 20.651 78.0888 21.044C78.87 21.4323 79.4643 21.9839 79.8714 22.6989C80.2834 23.4091 80.4893 24.2448 80.4893 25.206C80.4893 26.1719 80.281 27.0028 79.8643 27.6989C79.4477 28.3902 78.844 28.9205 78.0533 29.2898C77.2673 29.6591 76.3156 29.8438 75.1982 29.8438H71.3558V27.3722H74.701C75.2881 27.3722 75.7758 27.2917 76.1641 27.1307C76.5523 26.9697 76.8411 26.7282 77.0305 26.4062C77.2247 26.0843 77.3217 25.6842 77.3217 25.206C77.3217 24.723 77.2247 24.3158 77.0305 23.9844C76.8411 23.6529 76.55 23.402 76.157 23.2315C75.7687 23.0563 75.2786 22.9688 74.6868 22.9688H72.6129V35H69.5376ZM77.3928 28.3807L81.0078 35H77.6129L74.076 28.3807H77.3928ZM85.7166 35.206C85.0206 35.206 84.4003 35.0852 83.8558 34.8438C83.3113 34.5975 82.8804 34.2353 82.5632 33.7571C82.2507 33.2741 82.0945 32.6728 82.0945 31.9531C82.0945 31.3471 82.2057 30.8381 82.4283 30.4261C82.6508 30.0142 82.9538 29.6828 83.3374 29.4318C83.7209 29.1809 84.1565 28.9915 84.6442 28.8636C85.1366 28.7358 85.6527 28.6458 86.1925 28.5938C86.8269 28.5275 87.3383 28.4659 87.7266 28.4091C88.1148 28.3475 88.3965 28.2576 88.5717 28.1392C88.7469 28.0208 88.8345 27.8456 88.8345 27.6136V27.571C88.8345 27.1212 88.6925 26.7732 88.4084 26.527C88.129 26.2808 87.7313 26.1577 87.2152 26.1577C86.6707 26.1577 86.2375 26.2784 85.9155 26.5199C85.5935 26.7566 85.3804 27.0549 85.2763 27.4148L82.478 27.1875C82.62 26.5246 82.8994 25.9517 83.3161 25.4688C83.7327 24.9811 84.2701 24.607 84.9283 24.3466C85.5911 24.0814 86.3582 23.9489 87.2294 23.9489C87.8355 23.9489 88.4155 24.0199 88.9695 24.1619C89.5282 24.304 90.023 24.5241 90.4538 24.8224C90.8894 25.1207 91.2327 25.5043 91.4837 25.973C91.7346 26.437 91.8601 26.9934 91.8601 27.642V35H88.9908V33.4872H88.9055C88.7304 33.8281 88.496 34.1288 88.2024 34.3892C87.9089 34.6449 87.5561 34.8461 87.1442 34.9929C86.7322 35.1349 86.2564 35.206 85.7166 35.206ZM86.5831 33.1179C87.0282 33.1179 87.4212 33.0303 87.7621 32.8551C88.103 32.6752 88.3705 32.4337 88.5646 32.1307C88.7588 31.8277 88.8558 31.4844 88.8558 31.1009V29.9432C88.7611 30.0047 88.6309 30.0616 88.4652 30.1136C88.3042 30.161 88.1219 30.206 87.9183 30.2486C87.7147 30.2865 87.5111 30.322 87.3075 30.3551C87.1039 30.3835 86.9193 30.4096 86.7536 30.4332C86.3984 30.4853 86.0883 30.5682 85.8232 30.6818C85.558 30.7955 85.352 30.9493 85.2053 31.1435C85.0585 31.3329 84.9851 31.5696 84.9851 31.8537C84.9851 32.2656 85.1342 32.5805 85.4325 32.7983C85.7356 33.0114 86.1191 33.1179 86.5831 33.1179ZM97.233 28.6932V35H94.2074V24.0909H97.0909V26.0156H97.2188C97.4602 25.3812 97.8651 24.8793 98.4332 24.5099C99.0014 24.1359 99.6903 23.9489 100.5 23.9489C101.258 23.9489 101.918 24.1146 102.482 24.446C103.045 24.7775 103.483 25.2509 103.795 25.8665C104.108 26.4773 104.264 27.2064 104.264 28.054V35H101.239V28.5938C101.243 27.9261 101.073 27.4053 100.727 27.0312C100.382 26.6525 99.9058 26.4631 99.2997 26.4631C98.8925 26.4631 98.5327 26.5507 98.2202 26.7259C97.9124 26.901 97.6709 27.1567 97.4957 27.4929C97.3253 27.8243 97.2377 28.2244 97.233 28.6932ZM112.451 24.0909V26.3636H105.882V24.0909H112.451ZM107.373 21.4773H110.399V31.6477C110.399 31.9271 110.441 32.1449 110.527 32.3011C110.612 32.4527 110.73 32.5592 110.882 32.6207C111.038 32.6823 111.218 32.7131 111.422 32.7131C111.564 32.7131 111.706 32.7012 111.848 32.6776C111.99 32.6491 112.099 32.6278 112.174 32.6136L112.65 34.8651C112.499 34.9124 112.286 34.9669 112.011 35.0284C111.736 35.0947 111.403 35.1349 111.01 35.1491C110.28 35.1776 109.641 35.0805 109.092 34.858C108.547 34.6354 108.124 34.2898 107.821 33.821C107.518 33.3523 107.368 32.7604 107.373 32.0455V21.4773ZM117.533 35.206C116.837 35.206 116.217 35.0852 115.672 34.8438C115.128 34.5975 114.697 34.2353 114.38 33.7571C114.067 33.2741 113.911 32.6728 113.911 31.9531C113.911 31.3471 114.022 30.8381 114.245 30.4261C114.467 30.0142 114.77 29.6828 115.154 29.4318C115.537 29.1809 115.973 28.9915 116.461 28.8636C116.953 28.7358 117.469 28.6458 118.009 28.5938C118.643 28.5275 119.155 28.4659 119.543 28.4091C119.931 28.3475 120.213 28.2576 120.388 28.1392C120.563 28.0208 120.651 27.8456 120.651 27.6136V27.571C120.651 27.1212 120.509 26.7732 120.225 26.527C119.945 26.2808 119.548 26.1577 119.032 26.1577C118.487 26.1577 118.054 26.2784 117.732 26.5199C117.41 26.7566 117.197 27.0549 117.093 27.4148L114.294 27.1875C114.436 26.5246 114.716 25.9517 115.132 25.4688C115.549 24.9811 116.087 24.607 116.745 24.3466C117.408 24.0814 118.175 23.9489 119.046 23.9489C119.652 23.9489 120.232 24.0199 120.786 24.1619C121.345 24.304 121.839 24.5241 122.27 24.8224C122.706 25.1207 123.049 25.5043 123.3 25.973C123.551 26.437 123.676 26.9934 123.676 27.642V35H120.807V33.4872H120.722C120.547 33.8281 120.312 34.1288 120.019 34.3892C119.725 34.6449 119.373 34.8461 118.961 34.9929C118.549 35.1349 118.073 35.206 117.533 35.206ZM118.4 33.1179C118.845 33.1179 119.238 33.0303 119.578 32.8551C119.919 32.6752 120.187 32.4337 120.381 32.1307C120.575 31.8277 120.672 31.4844 120.672 31.1009V29.9432C120.578 30.0047 120.447 30.0616 120.282 30.1136C120.121 30.161 119.938 30.206 119.735 30.2486C119.531 30.2865 119.328 30.322 119.124 30.3551C118.92 30.3835 118.736 30.4096 118.57 30.4332C118.215 30.4853 117.905 30.5682 117.64 30.6818C117.374 30.7955 117.168 30.9493 117.022 31.1435C116.875 31.3329 116.801 31.5696 116.801 31.8537C116.801 32.2656 116.951 32.5805 117.249 32.7983C117.552 33.0114 117.935 33.1179 118.4 33.1179ZM133.02 30.3551V24.0909H136.045V35H133.14V33.0185H133.027C132.78 33.6577 132.371 34.1714 131.798 34.5597C131.23 34.9479 130.536 35.142 129.717 35.142C128.988 35.142 128.346 34.9763 127.792 34.6449C127.238 34.3134 126.805 33.8423 126.493 33.2315C126.185 32.6207 126.029 31.8892 126.024 31.0369V24.0909H129.049V30.4972C129.054 31.1411 129.227 31.6501 129.568 32.0241C129.909 32.3982 130.366 32.5852 130.939 32.5852C131.303 32.5852 131.644 32.5024 131.961 32.3366C132.279 32.1662 132.534 31.9152 132.728 31.5838C132.927 31.2524 133.024 30.8428 133.02 30.3551ZM155.317 20.4545V35H152.661L146.333 25.8452H146.226V35H143.151V20.4545H145.85L152.128 29.6023H152.256V20.4545H155.317ZM162.773 35.2131C161.651 35.2131 160.685 34.9858 159.875 34.5312C159.07 34.072 158.45 33.4233 158.014 32.5852C157.579 31.7424 157.361 30.7457 157.361 29.5952C157.361 28.473 157.579 27.4882 158.014 26.6406C158.45 25.7931 159.063 25.1326 159.854 24.6591C160.649 24.1856 161.582 23.9489 162.652 23.9489C163.372 23.9489 164.042 24.0649 164.662 24.2969C165.287 24.5241 165.831 24.8674 166.295 25.3267C166.764 25.786 167.129 26.3636 167.389 27.0597C167.65 27.7509 167.78 28.5606 167.78 29.4886V30.3196H158.568V28.4446H164.932C164.932 28.009 164.837 27.6231 164.648 27.2869C164.458 26.9508 164.196 26.688 163.859 26.4986C163.528 26.3045 163.142 26.2074 162.702 26.2074C162.242 26.2074 161.835 26.3139 161.48 26.527C161.13 26.7353 160.855 27.017 160.656 27.3722C160.457 27.7225 160.356 28.1132 160.351 28.544V30.3267C160.351 30.8665 160.45 31.3329 160.649 31.7259C160.853 32.1188 161.139 32.4219 161.509 32.6349C161.878 32.848 162.316 32.9545 162.822 32.9545C163.159 32.9545 163.466 32.9072 163.746 32.8125C164.025 32.7178 164.264 32.5758 164.463 32.3864C164.662 32.197 164.813 31.965 164.918 31.6903L167.716 31.875C167.574 32.5473 167.283 33.1345 166.842 33.6364C166.407 34.1335 165.843 34.5218 165.152 34.8011C164.465 35.0758 163.672 35.2131 162.773 35.2131ZM171.828 35L168.859 24.0909H171.92L173.611 31.4205H173.71L175.472 24.0909H178.476L180.266 31.3778H180.358L182.02 24.0909H185.074L182.112 35H178.909L177.034 28.1392H176.899L175.024 35H171.828ZM195.765 27.2017L192.995 27.3722C192.947 27.1354 192.846 26.9223 192.689 26.733C192.533 26.5388 192.327 26.3849 192.071 26.2713C191.82 26.1529 191.52 26.0938 191.169 26.0938C190.701 26.0938 190.305 26.1932 189.983 26.392C189.661 26.5862 189.5 26.8466 189.5 27.1733C189.5 27.4337 189.605 27.6539 189.813 27.8338C190.021 28.0137 190.379 28.1581 190.885 28.267L192.86 28.6648C193.92 28.8826 194.711 29.233 195.232 29.7159C195.753 30.1989 196.013 30.8333 196.013 31.6193C196.013 32.3343 195.802 32.9616 195.381 33.5014C194.964 34.0412 194.391 34.4626 193.662 34.7656C192.938 35.0639 192.102 35.2131 191.155 35.2131C189.711 35.2131 188.56 34.9124 187.703 34.3111C186.851 33.705 186.352 32.8812 186.205 31.8395L189.181 31.6832C189.271 32.1236 189.489 32.4598 189.834 32.6918C190.18 32.919 190.623 33.0327 191.162 33.0327C191.693 33.0327 192.119 32.9309 192.441 32.7273C192.767 32.5189 192.933 32.2514 192.938 31.9247C192.933 31.6501 192.817 31.4252 192.59 31.25C192.363 31.0701 192.012 30.9328 191.539 30.8381L189.65 30.4616C188.584 30.2486 187.791 29.8793 187.27 29.3537C186.754 28.8281 186.496 28.1581 186.496 27.3438C186.496 26.643 186.685 26.0393 187.064 25.5327C187.448 25.026 187.985 24.6354 188.676 24.3608C189.373 24.0862 190.187 23.9489 191.12 23.9489C192.498 23.9489 193.582 24.2401 194.373 24.8224C195.168 25.4048 195.632 26.1979 195.765 27.2017Z" fill="#1F1F1F"/>
<rect x="1" y="1" width="208" height="54" stroke="#FF7F50" stroke-width="2"/>
</svg>
